<mxfile host="app.diagrams.net" agent="Mozilla/5.0 (Macintosh; Intel Mac OS X 10_15_7) AppleWebKit/537.36 (KHTML, like Gecko) Chrome/130.0.0.0 Safari/537.36" version="24.8.0">
  <diagram name="Страница — 1" id="ZzXJq1Rp-EYbnWoSCng1">
    <mxGraphModel dx="446" dy="283" grid="1" gridSize="10" guides="1" tooltips="1" connect="1" arrows="1" fold="1" page="1" pageScale="1" pageWidth="827" pageHeight="1169" math="0" shadow="0">
      <root>
        <mxCell id="0" />
        <mxCell id="1" parent="0" />
        <mxCell id="WVubGw1Uuq_KaQRDa4Gf-1" value="" style="endArrow=none;html=1;rounded=0;" parent="1" target="WVubGw1Uuq_KaQRDa4Gf-9" edge="1">
          <mxGeometry width="50" height="50" relative="1" as="geometry">
            <mxPoint x="360" y="370" as="sourcePoint" />
            <mxPoint x="360" y="160" as="targetPoint" />
          </mxGeometry>
        </mxCell>
        <mxCell id="WVubGw1Uuq_KaQRDa4Gf-2" value="" style="endArrow=classic;html=1;rounded=0;" parent="1" edge="1">
          <mxGeometry width="50" height="50" relative="1" as="geometry">
            <mxPoint x="360" y="180" as="sourcePoint" />
            <mxPoint x="560" y="230" as="targetPoint" />
          </mxGeometry>
        </mxCell>
        <mxCell id="WVubGw1Uuq_KaQRDa4Gf-3" value="" style="endArrow=none;html=1;rounded=0;" parent="1" edge="1">
          <mxGeometry width="50" height="50" relative="1" as="geometry">
            <mxPoint x="560" y="370" as="sourcePoint" />
            <mxPoint x="560" y="150" as="targetPoint" />
          </mxGeometry>
        </mxCell>
        <mxCell id="WVubGw1Uuq_KaQRDa4Gf-5" value="" style="endArrow=classic;html=1;rounded=0;" parent="1" edge="1">
          <mxGeometry width="50" height="50" relative="1" as="geometry">
            <mxPoint x="560" y="250" as="sourcePoint" />
            <mxPoint x="360" y="340" as="targetPoint" />
          </mxGeometry>
        </mxCell>
        <mxCell id="WVubGw1Uuq_KaQRDa4Gf-7" value="&lt;div style=&quot;font-size: 9px;&quot;&gt;Finish=1&lt;/div&gt;" style="text;html=1;align=left;verticalAlign=middle;whiteSpace=wrap;rounded=0;fontSize=9;" parent="1" vertex="1">
          <mxGeometry x="359" y="150" width="110" height="30" as="geometry" />
        </mxCell>
        <mxCell id="WVubGw1Uuq_KaQRDa4Gf-9" value="&lt;div style=&quot;font-size: 10px;&quot;&gt;PC1&lt;/div&gt;" style="text;html=1;align=center;verticalAlign=middle;whiteSpace=wrap;rounded=0;fontSize=10;" parent="1" vertex="1">
          <mxGeometry x="304" y="120" width="110" height="30" as="geometry" />
        </mxCell>
        <mxCell id="WVubGw1Uuq_KaQRDa4Gf-10" value="&lt;div style=&quot;font-size: 10px;&quot;&gt;PC2&lt;/div&gt;" style="text;html=1;align=center;verticalAlign=middle;whiteSpace=wrap;rounded=0;fontSize=10;" parent="1" vertex="1">
          <mxGeometry x="500" y="120" width="110" height="30" as="geometry" />
        </mxCell>
        <mxCell id="WVubGw1Uuq_KaQRDa4Gf-13" value="Connection request" style="text;html=1;align=center;verticalAlign=middle;whiteSpace=wrap;rounded=0;rotation=8;fontSize=8;" parent="1" vertex="1">
          <mxGeometry x="440" y="172.35" width="90" height="30" as="geometry" />
        </mxCell>
        <mxCell id="WVubGw1Uuq_KaQRDa4Gf-16" value="sss" style="text;html=1;align=center;verticalAlign=middle;whiteSpace=wrap;rounded=0;rotation=335;fontSize=8;" parent="1" vertex="1">
          <mxGeometry x="390" y="280" width="90" height="29" as="geometry" />
        </mxCell>
      </root>
    </mxGraphModel>
  </diagram>
</mxfile>
